<svg width="18" height="23" viewBox="0 0 18 23" fill="none" xmlns="http://www.w3.org/2000/svg">
<path d="M8.99311 11.7197C9.61139 11.7197 10.1409 11.49 10.5815 11.0306C11.0214 10.572 11.2414 10.0204 11.2414 9.3758C11.2414 8.73121 11.0214 8.17921 10.5815 7.7198C10.1409 7.26116 9.61139 7.03185 8.99311 7.03185C8.37483 7.03185 7.84574 7.26116 7.40583 7.7198C6.96516 8.17921 6.74483 8.73121 6.74483 9.3758C6.74483 10.0204 6.96516 10.572 7.40583 11.0306C7.84574 11.49 8.37483 11.7197 8.99311 11.7197ZM8.99311 23C8.84322 23 8.69334 22.9707 8.54345 22.9121C8.39357 22.8535 8.26242 22.7754 8.15001 22.6777C5.4146 20.158 3.37242 17.8191 2.02345 15.6611C0.674483 13.5023 0 11.4854 0 9.61019C0 6.68025 0.904182 4.34607 2.71255 2.60764C4.52016 0.869214 6.61368 0 8.99311 0C11.3725 0 13.4661 0.869214 15.2737 2.60764C17.082 4.34607 17.9862 6.68025 17.9862 9.61019C17.9862 11.4854 17.3117 13.5023 15.9628 15.6611C14.6138 17.8191 12.5716 20.158 9.83621 22.6777C9.7238 22.7754 9.59265 22.8535 9.44277 22.9121C9.29288 22.9707 9.14299 23 8.99311 23Z" fill="#AFAFAF"/>
</svg>
