<svg width="9" height="13" viewBox="0 0 9 13" fill="none" xmlns="http://www.w3.org/2000/svg">
<path d="M4.49999 6.34307C4.80937 6.34307 5.0743 6.21875 5.2948 5.9701C5.51493 5.72187 5.62499 5.42333 5.62499 5.07446C5.62499 4.72559 5.51493 4.42683 5.2948 4.17818C5.0743 3.92996 4.80937 3.80584 4.49999 3.80584C4.19062 3.80584 3.92587 3.92996 3.70574 4.17818C3.48524 4.42683 3.37499 4.72559 3.37499 5.07446C3.37499 5.42333 3.48524 5.72187 3.70574 5.9701C3.92587 6.21875 4.19062 6.34307 4.49999 6.34307ZM4.49999 12.4483C4.42499 12.4483 4.34999 12.4324 4.27499 12.4007C4.19999 12.369 4.13437 12.3267 4.07812 12.2738C2.70937 10.9101 1.6875 9.64422 1.0125 8.47625C0.337499 7.30785 0 6.21621 0 5.20132C0 3.61555 0.452437 2.35222 1.35731 1.41133C2.26181 0.470445 3.30937 0 4.49999 0C5.69061 0 6.73817 0.470445 7.64267 1.41133C8.54755 2.35222 8.99998 3.61555 8.99998 5.20132C8.99998 6.21621 8.66248 7.30785 7.98749 8.47625C7.31249 9.64422 6.29061 10.9101 4.92187 12.2738C4.86562 12.3267 4.79999 12.369 4.72499 12.4007C4.64999 12.4324 4.57499 12.4483 4.49999 12.4483Z" fill="#636363"/>
</svg>
