<svg width="12" height="15" viewBox="0 0 12 15" fill="none" xmlns="http://www.w3.org/2000/svg">
<path d="M5.99999 7.49999C6.41249 7.49999 6.76574 7.35299 7.05974 7.05899C7.35324 6.76549 7.49999 6.41249 7.49999 5.99999C7.49999 5.58749 7.35324 5.23424 7.05974 4.94024C6.76574 4.64674 6.41249 4.49999 5.99999 4.49999C5.58749 4.49999 5.23449 4.64674 4.94099 4.94024C4.64699 5.23424 4.49999 5.58749 4.49999 5.99999C4.49999 6.41249 4.64699 6.76549 4.94099 7.05899C5.23449 7.35299 5.58749 7.49999 5.99999 7.49999ZM5.99999 14.7187C5.89999 14.7187 5.79999 14.7 5.69999 14.6625C5.59999 14.625 5.51249 14.575 5.43749 14.5125C3.61249 12.9 2.25 11.4032 1.35 10.0222C0.449999 8.64074 0 7.34999 0 6.14999C0 4.27499 0.603249 2.78125 1.80975 1.66875C3.01575 0.556249 4.41249 0 5.99999 0C7.58749 0 8.98424 0.556249 10.1902 1.66875C11.3967 2.78125 12 4.27499 12 6.14999C12 7.34999 11.55 8.64074 10.65 10.0222C9.74999 11.4032 8.38749 12.9 6.56249 14.5125C6.48749 14.575 6.39999 14.625 6.29999 14.6625C6.19999 14.7 6.09999 14.7187 5.99999 14.7187Z" fill="#3D3D3D"/>
</svg>
