<svg width="278" height="45" viewBox="0 0 278 45" fill="none" xmlns="http://www.w3.org/2000/svg">
<rect x="0.5" y="0.5" width="277" height="44" rx="22" fill="white" stroke="#008FA0"/>
<path d="M20 32C19.45 32 18.9793 31.8043 18.588 31.413C18.196 31.021 18 30.55 18 30V20C18 19.45 18.196 18.979 18.588 18.587C18.9793 18.1957 19.45 18 20 18H21V16C21 14.6167 21.4877 13.4373 22.463 12.462C23.4377 11.4873 24.6167 11 26 11C27.3833 11 28.5627 11.4873 29.538 12.462C30.5127 13.4373 31 14.6167 31 16V18H32C32.55 18 33.021 18.1957 33.413 18.587C33.8043 18.979 34 19.45 34 20V30C34 30.55 33.8043 31.021 33.413 31.413C33.021 31.8043 32.55 32 32 32H20ZM20 30H32V20H20V30ZM26 27C26.55 27 27.021 26.8043 27.413 26.413C27.8043 26.021 28 25.55 28 25C28 24.45 27.8043 23.979 27.413 23.587C27.021 23.1957 26.55 23 26 23C25.45 23 24.9793 23.1957 24.588 23.587C24.196 23.979 24 24.45 24 25C24 25.55 24.196 26.021 24.588 26.413C24.9793 26.8043 25.45 27 26 27ZM23 18H29V16C29 15.1667 28.7083 14.4583 28.125 13.875C27.5417 13.2917 26.8333 13 26 13C25.1667 13 24.4583 13.2917 23.875 13.875C23.2917 14.4583 23 15.1667 23 16V18Z" fill="#636363"/>
<circle cx="47.4268" cy="24.4268" r="3.42683" fill="#008FA0"/>
<circle cx="56.1497" cy="24.4268" r="3.42683" fill="#008FA0"/>
<circle cx="64.8725" cy="24.4268" r="3.42683" fill="#008FA0"/>
<circle cx="73.5953" cy="24.4268" r="3.42683" fill="#008FA0"/>
<circle cx="82.3182" cy="24.4268" r="3.42683" fill="#008FA0"/>
<circle cx="91.041" cy="24.4268" r="3.42683" fill="#008FA0"/>
<circle cx="99.7639" cy="24.4268" r="3.42683" fill="#008FA0"/>
<circle cx="108.487" cy="24.4268" r="3.42683" fill="#008FA0"/>
</svg>
