<svg width="20" height="17" viewBox="0 0 20 17" fill="none" xmlns="http://www.w3.org/2000/svg">
<path d="M15.132 7.52212C15.132 11.6765 11.7446 15.0442 7.56598 15.0442C3.38741 15.0442 0 11.6765 0 7.52212C0 3.36777 3.38741 0 7.56598 0C11.7446 0 15.132 3.36777 15.132 7.52212ZM1.40496 7.52212C1.40496 10.905 4.16334 13.6474 7.56598 13.6474C10.9686 13.6474 13.727 10.905 13.727 7.52212C13.727 4.13921 10.9686 1.39682 7.56598 1.39682C4.16334 1.39682 1.40496 4.13921 1.40496 7.52212Z" fill="#636363"/>
<line y1="-0.752212" x2="7.67575" y2="-0.752212" transform="matrix(0.785017 0.619474 -0.623909 0.781497 12.4353 12.2451)" stroke="#636363" stroke-width="1.50442"/>
</svg>
