<svg width="297" height="45" viewBox="0 0 297 45" fill="none" xmlns="http://www.w3.org/2000/svg">
<rect x="0.5" y="0.5" width="295.72" height="44" rx="19.5" fill="white" stroke="#E9E9E9"/>
<path d="M30.3038 21.5221C30.3038 25.6765 26.9164 29.0442 22.7379 29.0442C18.5593 29.0442 15.1719 25.6765 15.1719 21.5221C15.1719 17.3678 18.5593 14 22.7379 14C26.9164 14 30.3038 17.3678 30.3038 21.5221ZM16.5768 21.5221C16.5768 24.905 19.3352 27.6474 22.7379 27.6474C26.1405 27.6474 28.8989 24.905 28.8989 21.5221C28.8989 18.1392 26.1405 15.3968 22.7379 15.3968C19.3352 15.3968 16.5768 18.1392 16.5768 21.5221Z" fill="#636363"/>
<line y1="-0.752212" x2="7.67575" y2="-0.752212" transform="matrix(0.785017 0.619474 -0.623909 0.781497 27.6072 26.2451)" stroke="#636363" stroke-width="1.50442"/>
</svg>
