<svg width="33" height="30" viewBox="0 0 33 30" fill="none" xmlns="http://www.w3.org/2000/svg">
<path d="M14.797 27.0776L14.7955 27.0762C10.5264 23.2405 7.06619 20.1253 4.66127 17.2101C2.26737 14.3081 1.02941 11.732 1.02941 8.99183C1.02941 4.51872 4.55134 1.02941 9.075 1.02941C11.6383 1.02941 14.1129 2.21704 15.7219 4.07453L16.5 4.97281L17.2781 4.07453C18.8871 2.21704 21.3617 1.02941 23.925 1.02941C28.4487 1.02941 31.9706 4.51872 31.9706 8.99183C31.9706 11.732 30.7326 14.3081 28.3387 17.2101C25.9338 20.1253 22.4736 23.2405 18.2045 27.0762L18.203 27.0776L16.5 28.6137L14.797 27.0776Z" stroke="#AFAFAF" stroke-width="2.05882"/>
</svg>
